<svg xmlns="http://www.w3.org/2000/svg" width="400" height="400" viewBox="0 0 400 400">
<defs><linearGradient id="g1110" x1="0" y1="1" x2="1" y2="0">
<stop offset="0" stop-color="hsl(81 72% 26%)"/><stop offset="1" stop-color="hsl(56 75% 14%)"/></linearGradient></defs>
<rect width="400" height="400" fill="url(#g1110)"/>
<circle cx="330" cy="78" r="120" fill="hsl(81 85% 62%)" opacity="0.16"/>
<rect x="60" y="264" width="12" height="26" rx="6" fill="#fff" fill-opacity="0.85"/><rect x="82" y="264" width="12" height="26" rx="6" fill="#fff" fill-opacity="0.65"/><rect x="104" y="208" width="12" height="82" rx="6" fill="#fff" fill-opacity="0.51"/><rect x="126" y="192" width="12" height="98" rx="6" fill="#fff" fill-opacity="0.77"/><rect x="148" y="168" width="12" height="122" rx="6" fill="#fff" fill-opacity="0.91"/><rect x="170" y="264" width="12" height="26" rx="6" fill="#fff" fill-opacity="0.85"/><rect x="192" y="264" width="12" height="26" rx="6" fill="#fff" fill-opacity="0.65"/><rect x="214" y="264" width="12" height="26" rx="6" fill="#fff" fill-opacity="0.85"/><rect x="236" y="176" width="12" height="114" rx="6" fill="#fff" fill-opacity="0.53"/><rect x="258" y="232" width="12" height="58" rx="6" fill="#fff" fill-opacity="0.87"/><rect x="280" y="264" width="12" height="26" rx="6" fill="#fff" fill-opacity="0.65"/><rect x="302" y="208" width="12" height="82" rx="6" fill="#fff" fill-opacity="0.71"/><rect x="324" y="152" width="12" height="138" rx="6" fill="#fff" fill-opacity="0.47"/>
</svg>