<svg xmlns="http://www.w3.org/2000/svg" width="400" height="400" viewBox="0 0 400 400">
<defs><linearGradient id="g1298" x1="0" y1="1" x2="1" y2="0">
<stop offset="0" stop-color="hsl(94 72% 26%)"/><stop offset="1" stop-color="hsl(75 75% 14%)"/></linearGradient></defs>
<rect width="400" height="400" fill="url(#g1298)"/>
<circle cx="330" cy="78" r="120" fill="hsl(94 85% 62%)" opacity="0.16"/>
<rect x="60" y="152" width="12" height="138" rx="6" fill="#fff" fill-opacity="0.47"/><rect x="82" y="216" width="12" height="74" rx="6" fill="#fff" fill-opacity="0.53"/><rect x="104" y="184" width="12" height="106" rx="6" fill="#fff" fill-opacity="0.45"/><rect x="126" y="240" width="12" height="50" rx="6" fill="#fff" fill-opacity="0.79"/><rect x="148" y="200" width="12" height="90" rx="6" fill="#fff" fill-opacity="0.79"/><rect x="170" y="240" width="12" height="50" rx="6" fill="#fff" fill-opacity="0.89"/><rect x="192" y="184" width="12" height="106" rx="6" fill="#fff" fill-opacity="0.65"/><rect x="214" y="184" width="12" height="106" rx="6" fill="#fff" fill-opacity="0.75"/><rect x="236" y="232" width="12" height="58" rx="6" fill="#fff" fill-opacity="0.77"/><rect x="258" y="176" width="12" height="114" rx="6" fill="#fff" fill-opacity="0.73"/><rect x="280" y="176" width="12" height="114" rx="6" fill="#fff" fill-opacity="0.63"/><rect x="302" y="200" width="12" height="90" rx="6" fill="#fff" fill-opacity="0.59"/><rect x="324" y="224" width="12" height="66" rx="6" fill="#fff" fill-opacity="0.55"/>
</svg>