<svg xmlns="http://www.w3.org/2000/svg" width="400" height="400" viewBox="0 0 400 400">
<defs><linearGradient id="g3724" x1="0" y1="1" x2="1" y2="0">
<stop offset="0" stop-color="hsl(267 72% 26%)"/><stop offset="1" stop-color="hsl(252 75% 14%)"/></linearGradient></defs>
<rect width="400" height="400" fill="url(#g3724)"/>
<circle cx="330" cy="78" r="120" fill="hsl(267 85% 62%)" opacity="0.16"/>
<rect x="60" y="248" width="12" height="42" rx="6" fill="#fff" fill-opacity="0.91"/><rect x="82" y="160" width="12" height="130" rx="6" fill="#fff" fill-opacity="0.79"/><rect x="104" y="184" width="12" height="106" rx="6" fill="#fff" fill-opacity="0.75"/><rect x="126" y="176" width="12" height="114" rx="6" fill="#fff" fill-opacity="0.73"/><rect x="148" y="168" width="12" height="122" rx="6" fill="#fff" fill-opacity="0.51"/><rect x="170" y="216" width="12" height="74" rx="6" fill="#fff" fill-opacity="0.83"/><rect x="192" y="176" width="12" height="114" rx="6" fill="#fff" fill-opacity="0.53"/><rect x="214" y="192" width="12" height="98" rx="6" fill="#fff" fill-opacity="0.47"/><rect x="236" y="176" width="12" height="114" rx="6" fill="#fff" fill-opacity="0.93"/><rect x="258" y="256" width="12" height="34" rx="6" fill="#fff" fill-opacity="0.63"/><rect x="280" y="192" width="12" height="98" rx="6" fill="#fff" fill-opacity="0.67"/><rect x="302" y="160" width="12" height="130" rx="6" fill="#fff" fill-opacity="0.49"/><rect x="324" y="192" width="12" height="98" rx="6" fill="#fff" fill-opacity="0.57"/>
</svg>