<svg xmlns="http://www.w3.org/2000/svg" width="400" height="400" viewBox="0 0 400 400">
<defs><linearGradient id="g3355" x1="0" y1="1" x2="1" y2="0">
<stop offset="0" stop-color="hsl(242 72% 26%)"/><stop offset="1" stop-color="hsl(208 75% 14%)"/></linearGradient></defs>
<rect width="400" height="400" fill="url(#g3355)"/>
<circle cx="330" cy="78" r="120" fill="hsl(242 85% 62%)" opacity="0.16"/>
<rect x="60" y="264" width="12" height="26" rx="6" fill="#fff" fill-opacity="0.65"/><rect x="82" y="208" width="12" height="82" rx="6" fill="#fff" fill-opacity="0.71"/><rect x="104" y="168" width="12" height="122" rx="6" fill="#fff" fill-opacity="0.71"/><rect x="126" y="256" width="12" height="34" rx="6" fill="#fff" fill-opacity="0.93"/><rect x="148" y="192" width="12" height="98" rx="6" fill="#fff" fill-opacity="0.77"/><rect x="170" y="264" width="12" height="26" rx="6" fill="#fff" fill-opacity="0.65"/><rect x="192" y="160" width="12" height="130" rx="6" fill="#fff" fill-opacity="0.89"/><rect x="214" y="264" width="12" height="26" rx="6" fill="#fff" fill-opacity="0.65"/><rect x="236" y="248" width="12" height="42" rx="6" fill="#fff" fill-opacity="0.61"/><rect x="258" y="264" width="12" height="26" rx="6" fill="#fff" fill-opacity="0.45"/><rect x="280" y="152" width="12" height="138" rx="6" fill="#fff" fill-opacity="0.77"/><rect x="302" y="264" width="12" height="26" rx="6" fill="#fff" fill-opacity="0.85"/><rect x="324" y="216" width="12" height="74" rx="6" fill="#fff" fill-opacity="0.63"/>
</svg>